<?xml version="1.0" encoding="UTF-8"?>
<svg id="Layer_1" xmlns="http://www.w3.org/2000/svg" version="1.1" viewBox="0 0 425.2 283.5">
  <!-- Generator: Adobe Illustrator 29.6.0, SVG Export Plug-In . SVG Version: 2.1.1 Build 207)  -->
  <defs>
    <style>
      .st0 {
        fill: #e2c675;
      }

      .st1 {
        fill: #010101;
      }

      .st2 {
        fill: #27aae1;
      }
    </style>
  </defs>
  <rect class="st2" y=".2" width="425.1" height="283.3"/>
  <rect class="st0" width="212.6" height="141.7"/>
  <rect class="st0" x="212.5" y="141.8" width="212.6" height="141.7"/>
  <path class="st1" d="M150,80.9c0-.3-.2-.6-.5-.8-.3-.2-.6-.2-.9-.2-9.4,2.4-15.1,11.3-15.4,11.7-.2.4-.2.8,0,1.2.2.4.6.6,1,.6h2.9c-9.3,10.5-19.6,9.4-20,9.3-5.1-.9-6-19.2-5.4-30.6v-19h8.2c1.2,1.9,3.3,3,5.5,3,2.3,0,4.4-1.2,5.6-3.1s1.4-4.3.4-6.4c-1-2.1-3-3.5-5.2-3.7-2.3-.3-4.5.6-5.9,2.4h-8.5v-5.5c3.8-1.7,6.6-5,7.6-9,1-4,.1-8.3-2.4-11.5-2.5-3.3-6.4-5.2-10.6-5.2s-8,1.9-10.6,5.2c-2.5,3.3-3.4,7.5-2.4,11.5,1,4,3.8,7.3,7.6,9v5.5h-8.6c-1.2-1.5-2.9-2.4-4.8-2.5-1.9-.1-3.7.6-5.1,1.9s-2,3.2-1.9,5c0,1.9,1,3.6,2.4,4.8s3.4,1.7,5.2,1.4c1.9-.3,3.5-1.4,4.5-2.9h8.1v19.1c.6,11.3-.3,29.6-5.3,30.6-.5,0-10.7,1.1-20.1-9.3h2.9c.4,0,.8-.3,1-.7.2-.4.2-.8,0-1.2-.2-.4-5.9-9.3-15.4-11.7-.3,0-.7,0-.9.2-.3.2-.5.5-.5.8-.1.5-2.1,13.6,2.9,19.4.3.3.6.4,1,.4.4,0,.7-.3.9-.6l1.6-2.9c5.2,8.6,13,15.3,22.3,19.2,5.1,2.1,11.6,5.7,13.9,10.4.2.4.6.7,1.1.6.4,0,.9-.3,1.1-.6,2.4-4.7,8.9-8.3,13.9-10.4,9.3-3.9,17.1-10.6,22.3-19.3l1.6,2.9c.2.3.5.6.9.6.4,0,.8-.1,1-.4,5-5.7,3-18.8,2.9-19.4h0ZM106.3,35.6c-2.1,0-4.2-.8-5.7-2.4-1.5-1.5-2.4-3.6-2.4-5.7,0-2.1.8-4.2,2.4-5.7,1.5-1.5,3.6-2.4,5.7-2.4,2.1,0,4.2.8,5.7,2.4s2.4,3.6,2.4,5.7c0,2.1-.9,4.2-2.4,5.7-1.5,1.5-3.6,2.4-5.7,2.4h0Z"/>
  <path class="st1" d="M320.8,202.2c1.5.3,2.9.9,4,1.7l8-8c-3.3-2.8-7.5-4.6-12.1-5v11.4ZM327.6,206.6c.8,1.2,1.4,2.6,1.7,4h11.4c-.4-4.6-2.2-8.8-5-12.1l-8,8ZM329.3,214.5c-.3,1.5-.9,2.9-1.7,4l8,8c2.8-3.3,4.6-7.5,5-12.1h-11.4ZM324.9,221.3c-1.2.8-2.6,1.4-4,1.7v11.4c4.6-.4,8.8-2.2,12.1-5l-8-8h0ZM317,223c-1.5-.3-2.9-.9-4-1.7l-8,8c3.3,2.8,7.5,4.6,12.1,5v-11.4ZM310.2,218.6c-.8-1.2-1.4-2.6-1.7-4h-11.4c.4,4.6,2.2,8.8,5,12.1l8-8ZM308.5,210.7c.3-1.5.9-2.9,1.7-4l-8-8c-2.8,3.3-4.6,7.5-5,12.1h11.4ZM312.9,203.9c1.2-.8,2.6-1.4,4-1.7v-11.4c-4.6.4-8.8,2.2-12.1,5l8,8h0ZM291.3,242.9c.3.6.4,1.3.4,2,0,1.3-.5,2.6-1.5,3.6l-4.2,4.2c-1,1-2.3,1.5-3.6,1.5s-2.6-.5-3.6-1.5h-.1c-.9-1.1-1.4-2.4-1.4-3.6s.5-2.5,1.4-3.5l4.3-4.3c1-1,2.3-1.5,3.6-1.5s1.4.1,2,.4l4.7-4.7c-5-5.6-8.2-12.9-8.7-20.9h-6.6c-.3.6-.6,1.2-1.1,1.7-.9.9-2.2,1.5-3.6,1.5h-5.9c-1.4,0-2.7-.6-3.6-1.5-.9-.9-1.5-2.2-1.5-3.6s.6-2.7,1.5-3.6c.9-.9,2.2-1.5,3.6-1.5h5.9c1.4,0,2.7.6,3.6,1.5.5.5.9,1.1,1.1,1.7h6.6c.4-8,3.6-15.3,8.7-20.9l-4.7-4.7c-.6.3-1.3.4-2,.4-1.3,0-2.6-.5-3.6-1.5l-4.3-4.3c-.9-1-1.4-2.2-1.4-3.5s.5-2.6,1.5-3.6h.1c1-1,2.2-1.5,3.5-1.5s2.6.5,3.6,1.5l4.3,4.3c.9,1,1.4,2.2,1.4,3.5s-.1,1.4-.4,2l4.7,4.7c5.6-5,12.9-8.2,20.9-8.7v-6.6c-.6-.3-1.2-.6-1.7-1.1-.9-.9-1.5-2.2-1.5-3.6v-5.9c0-1.4.6-2.7,1.5-3.6.9-.9,2.2-1.5,3.6-1.5s2.7.6,3.6,1.5c.9.9,1.5,2.2,1.5,3.6v5.9c0,1.4-.6,2.7-1.5,3.6-.5.5-1.1.9-1.7,1.1v6.6c8,.4,15.3,3.6,20.9,8.7l4.7-4.7c-.3-.6-.4-1.3-.4-2,0-1.3.5-2.5,1.4-3.5l4.3-4.3c1-1,2.3-1.5,3.6-1.5s2.5.5,3.5,1.4h.1c1,1.1,1.5,2.4,1.5,3.8s-.5,2.5-1.4,3.5l-4.3,4.3c-1,1-2.3,1.5-3.6,1.5s-1.4-.1-2-.4l-4.7,4.7c5,5.6,8.2,12.9,8.7,20.9h6.6c.3-.6.6-1.2,1.1-1.7.9-.9,2.2-1.5,3.6-1.5h5.9c1.4,0,2.7.6,3.6,1.5.9.9,1.5,2.2,1.5,3.6s-.6,2.7-1.5,3.6c-.9.9-2.2,1.5-3.6,1.5h-5.9c-1.4,0-2.7-.6-3.6-1.5-.5-.5-.9-1.1-1.1-1.7h-6.6c-.4,8-3.6,15.3-8.7,20.9l4.7,4.7c.6-.3,1.3-.4,2-.4,1.3,0,2.6.5,3.6,1.5l4.3,4.3c.9,1,1.4,2.2,1.4,3.5s-.5,2.5-1.4,3.5h-.1c-1,1.1-2.3,1.6-3.6,1.6s-2.6-.5-3.6-1.5l-4.2-4.2c-1-1-1.5-2.3-1.5-3.6s.1-1.4.4-2l-4.7-4.7c-5.6,5-12.9,8.2-20.9,8.7v6.6c.6.3,1.2.6,1.7,1.1.9.9,1.5,2.2,1.5,3.6v5.9c0,1.4-.6,2.7-1.5,3.6-.9.9-2.2,1.5-3.6,1.5s-2.7-.6-3.6-1.5c-.9-.9-1.5-2.2-1.5-3.6v-5.9c0-1.4.6-2.7,1.5-3.6.5-.5,1.1-.9,1.7-1.1v-6.6c-8-.4-15.3-3.6-20.9-8.7l-4.7,4.7h0Z"/>
</svg>