<?xml version="1.0" encoding="UTF-8"?>
<svg id="Layer_1" xmlns="http://www.w3.org/2000/svg" version="1.1" viewBox="0 0 425.2 283.5">
  <!-- Generator: Adobe Illustrator 29.6.0, SVG Export Plug-In . SVG Version: 2.1.1 Build 207)  -->
  <defs>
    <style>
      .st0 {
        fill: #39b54a;
      }

      .st1 {
        fill: #fff;
      }

      .st2 {
        fill: #27aae1;
      }
    </style>
  </defs>
  <rect class="st0" y="141.7" width="425.2" height="141.7"/>
  <rect class="st2" y="0" width="425.2" height="141.7"/>
  <path class="st1" d="M130.1,75.6l-.7.7c-2.4-.6-4.8-1.3-7.1-2.2,2.1-1.9,4-3.8,5.9-5.8,2.2.7,4.5,1.2,6.8,1.6-1.6,2-3.1,3.9-4.9,5.8h0ZM120,84.7c-2.5-.9-5.1-2-7.5-3.2,2.5-1.5,4.8-3.1,7-4.9,2.3,1,4.8,1.9,7.2,2.5-2.2,2-4.4,3.9-6.7,5.7h0ZM80.3,54c.3.6.6,1.2,1,1.8-1.7.3-3.4.5-5.2.5v-2.4h4.2ZM104,52.1c.9,1,1.8,2,2.7,3h0c-1.8,1.6-3.7,3.1-5.8,4.4-1.7-1.8-3.3-3.8-4.8-5.8.2,0,.4-.2.6-.4,2.5-.3,4.9-.7,7.3-1.3h0ZM128.6,41.9c-2.6,6.5-6.4,12.5-11.2,17.7-2.1-1.3-4-2.8-5.8-4.4,2.2-2.2,4.2-4.7,5.9-7.3,3.9-1.6,7.6-3.7,11.2-5.9h0ZM137.3,66.8h0c-2.2-.3-4.5-.7-6.7-1.3,1.7-2.1,3.3-4.3,4.7-6.6,2.1.4,4.2.7,6.4.8-1.3,2.5-2.8,4.9-4.4,7.1h0ZM127.2,64.4c-2.4-.8-4.7-1.9-7-3.1,1.7-1.9,3.3-3.9,4.8-5.9,2.2,1.1,4.5,2,6.9,2.7-1.4,2.2-3,4.3-4.7,6.4h0ZM119,72.6c-2.4-1.1-4.8-2.4-7-3.9,2.1-1.6,4-3.3,5.9-5.1,2.2,1.3,4.6,2.4,7,3.4-1.9,2-3.8,3.9-5.8,5.6h0ZM76.2,70.5c4.7,0,9.4-.9,13.9-2.3,1.8,2.1,3.8,4,5.8,5.8-6.3,2.5-13,3.8-19.8,4v-7.6h0ZM93.4,67.1c2.4-1,4.7-2,7-3.4,1.9,1.8,3.8,3.5,5.9,5.1-2.2,1.4-4.6,2.8-7,3.9-2-1.7-4-3.6-5.8-5.5h0ZM103.3,61.9h0c2.1-1.3,4-2.8,5.8-4.6,1.9,1.6,3.8,3.1,5.8,4.5-1.9,1.8-3.8,3.4-5.9,4.9-2-1.5-4-3.1-5.8-4.9h0ZM109.1,52.9c-.5-.5-1-1.1-1.6-1.6,1.4-.4,2.8-.8,4.3-1.3-.8,1-1.7,2-2.7,3h0ZM98.1,61.3h0c-2.2,1.2-4.6,2.2-7,3.1-1.7-2-3.3-4.1-4.7-6.4,2.4-.7,4.7-1.6,6.9-2.8,1.5,2.1,3.1,4.1,4.8,6h0ZM87.8,65.4h0c-3.8,1-7.7,1.6-11.6,1.8v-7.6c2.3,0,4.6-.4,6.9-.8,1.4,2.3,3,4.5,4.7,6.6h0ZM76.2,81.3c7.8-.2,15.4-1.9,22.6-4.9,2.2,1.8,4.6,3.4,7.1,4.9-9.2,4.6-19.3,7.2-29.7,7.4v-7.6h0v.2ZM102.1,74.9c2.5-1.2,4.8-2.5,7.1-4.1,2.2,1.5,4.6,2.9,7,4.1-2.2,1.7-4.6,3.3-7.1,4.7-2.5-1.4-4.8-3-7-4.7h0ZM143.3,56.5c-2.1,0-4.2-.2-6.3-.6,4.8-8.6,7.6-18.1,8.4-28,2-2.2,4-4.3,5.8-6.7.1,12.2-2.6,24.3-7.9,35.3h0ZM141.8,31.6c-1.1,8.3-3.8,16.3-8,23.5-2.3-.6-4.6-1.5-6.8-2.5,2.7-4.3,4.8-8.9,6.3-13.8,3-2.2,5.8-4.6,8.6-7.2h-.1ZM86.3,54h1.8c-1.2.4-2.4.8-3.6,1.1-.2-.4-.4-.7-.6-1.1,0,0,2.4,0,2.4,0ZM68,106.2c-1.3,0-2.5-.5-3.4-1.4s-1.4-2.2-1.4-3.4v-48.9c0-1.7.9-3.4,2.5-4.2,1.5-.9,3.4-.9,4.9,0s2.5,2.5,2.5,4.2v48.9c0,1.3-.5,2.5-1.4,3.4s-2.2,1.4-3.4,1.4h-.3ZM76.2,92.1c11.5-.2,22.9-3.2,33-8.8,2.5,1.3,5,2.5,7.6,3.6-12,8.1-26.2,12.5-40.6,12.7v-7.6h0Z"/>
</svg>