<?xml version="1.0" encoding="UTF-8"?>
<svg id="Layer_1" xmlns="http://www.w3.org/2000/svg" version="1.1" viewBox="0 0 425.2 283.5">
  <!-- Generator: Adobe Illustrator 29.6.0, SVG Export Plug-In . SVG Version: 2.1.1 Build 207)  -->
  <defs>
    <style>
      .st0 {
        fill: #fff;
      }

      .st1 {
        fill: #662d91;
      }
    </style>
  </defs>
  <rect class="st1" width="212.6" height="283.5"/>
  <rect class="st0" x="212.6" width="212.6" height="283.5"/>
  <path class="st0" d="M136.9,157.6c-.3.3-.6.6-.9.9-3.2-.8-6.4-1.8-9.5-3,2.8-2.5,5.4-5.1,7.9-7.8,3,.9,6,1.6,9.1,2.2-2.1,2.7-4.2,5.2-6.6,7.7h0ZM123.4,169.7c-3.4-1.2-6.8-2.7-10-4.3,3.3-2,6.4-4.2,9.4-6.6,3.1,1.3,6.4,2.5,9.6,3.4-2.9,2.7-5.9,5.2-9,7.6ZM70.5,128.9c.4.8.8,1.6,1.3,2.4-2.3.4-4.6.7-6.9.7v-3.2h5.6ZM102.1,126.3c1.2,1.4,2.4,2.7,3.6,4h0c-2.4,2.2-5,4.1-7.8,5.9-2.3-2.4-4.4-5.1-6.4-7.8.3-.2.5-.3.8-.5,3.3-.4,6.6-1,9.8-1.7h0ZM134.9,112.6c-3.5,8.7-8.5,16.7-15,23.6-2.8-1.8-5.4-3.7-7.8-5.9,2.9-3,5.6-6.3,7.9-9.8,5.2-2.2,10.1-4.9,14.9-7.9h0ZM146.4,145.9h0c-3-.4-6-1-8.9-1.8,2.3-2.8,4.4-5.8,6.3-8.8,2.8.6,5.6,1,8.5,1.1-1.8,3.3-3.7,6.5-5.9,9.5h0ZM133,142.7c-3.2-1.1-6.3-2.5-9.3-4.2,2.3-2.5,4.4-5.2,6.4-7.9,2.9,1.5,6,2.7,9.2,3.6-1.9,3-4,5.8-6.3,8.5h0ZM122.1,153.7c-3.2-1.5-6.4-3.2-9.4-5.2,2.8-2.1,5.4-4.4,7.9-6.8,3,1.7,6.1,3.2,9.3,4.5-2.5,2.7-5.1,5.2-7.8,7.5h0ZM64.9,150.8c6.3-.2,12.6-1.2,18.6-3.1,2.4,2.8,5.1,5.4,7.8,7.8-8.4,3.3-17.4,5.1-26.4,5.3v-10.1ZM87.9,146.2c3.2-1.3,6.3-2.7,9.3-4.5,2.5,2.4,5.1,4.7,7.9,6.8-3,1.9-6.2,3.7-9.4,5.2-2.7-2.3-5.4-4.8-7.8-7.4h0ZM101.1,139.4h0c2.8-1.8,5.4-3.8,7.8-6.1,2.5,2.2,5.1,4.2,7.8,6-2.5,2.4-5.1,4.5-7.9,6.6-2.7-2-5.4-4.2-7.8-6.5h0ZM108.9,127.3c-.7-.7-1.4-1.5-2.1-2.2,1.9-.5,3.8-1.1,5.7-1.7-1.1,1.4-2.3,2.7-3.6,4h0ZM94.2,138.5h0c-3,1.6-6.1,3-9.3,4.2-2.3-2.7-4.4-5.5-6.3-8.5,3.2-.9,6.3-2.2,9.2-3.7,2,2.8,4.1,5.5,6.4,8h0ZM80.4,144.1h0c-5.1,1.4-10.3,2.2-15.5,2.4v-10.1c3.1-.1,6.2-.5,9.2-1.1,1.9,3.1,4,6,6.3,8.8h0ZM64.9,165.2c10.4-.3,20.6-2.5,30.1-6.5,3,2.4,6.2,4.6,9.5,6.6-12.3,6.2-25.8,9.6-39.6,9.9v-10.1ZM99.5,156.7c3.3-1.6,6.4-3.4,9.5-5.5,3,2,6.2,3.9,9.4,5.5-3,2.3-6.2,4.4-9.5,6.3-3.3-1.9-6.4-4-9.4-6.3h0ZM154.5,132.1c-2.8,0-5.6-.3-8.4-.8,6.4-11.5,10.2-24.2,11.2-37.3,2.7-2.9,5.3-5.8,7.8-9,.2,16.3-3.5,32.4-10.6,47.1h0ZM152.4,99c-1.5,11.1-5.1,21.7-10.7,31.4-3.1-.8-6.2-2-9.1-3.4,3.6-5.7,6.4-11.9,8.4-18.4,4-2.9,7.8-6.2,11.5-9.6h0ZM78.5,128.9c.8,0,1.6,0,2.4,0-1.6.6-3.2,1.1-4.8,1.5-.3-.5-.6-1-.8-1.5h3.2ZM54,198.4c-1.7,0-3.4-.7-4.6-1.9-1.2-1.2-1.9-2.9-1.9-4.6v-65.2c0-2.3,1.2-4.5,3.3-5.6,2-1.2,4.5-1.2,6.5,0,2,1.2,3.3,3.3,3.3,5.6v65.2c0,1.7-.7,3.4-1.9,4.6-1.2,1.2-2.9,1.9-4.6,1.9ZM64.9,179.6c15.4-.3,30.5-4.3,44-11.7,3.3,1.8,6.7,3.4,10.2,4.8-16,10.8-34.9,16.7-54.2,17v-10.1Z"/>
</svg>