<?xml version="1.0" encoding="UTF-8"?>
<svg id="Layer_1" xmlns="http://www.w3.org/2000/svg" version="1.1" viewBox="0 0 510.2 255.1">
  <!-- Generator: Adobe Illustrator 29.6.1, SVG Export Plug-In . SVG Version: 2.1.1 Build 9)  -->
  <defs>
    <style>
      .st0 {
        fill: #231f20;
      }

      .st1 {
        fill: #fff;
      }

      .st2 {
        fill: #be1e2d;
      }

      .st3 {
        fill: #27aae1;
      }
    </style>
  </defs>
  <rect class="st3" x="85" width="425.2" height="85"/>
  <rect class="st1" x="85" y="85" width="425.2" height="85"/>
  <rect class="st0" x="85" y="170.1" width="425.2" height="85"/>
  <rect class="st2" width="85" height="255.1"/>
  <g>
    <path class="st1" d="M40.4,161.1c.1.5,1.4,5.1.6,5.1-7.8-9.4-16.6-18-25.8-26l25.5,26.6c0,.5-.7.2-1,.1-4.1-.8-8.6-3.1-12.2-5.1-7.3-5.8-12.6-13.4-13.6-22.9,11,3.4,23.2,10.5,26.6,22.3Z"/>
    <path class="st1" d="M69.9,98.3c-2.6,9.8-9.1,17.1-18.3,21.4-1.5.7-3.5,1.4-5.1,2s-.4.1-.7.2c-.3.1-.7.8-1.1.2l24.7-27.2c-9.2,7.7-17,16.8-24.9,25.7-.1-3.1.9-5,1.5-7.7s.6-.9.7-1.8c5-9.4,14.5-14.4,24.1-17.9.4.2-.8,4.4-1,5.1Z"/>
    <path class="st1" d="M45.7,70.9c2.7,7.7,3.7,15.5,1.5,23.5s-2.7,5.6-2.9,7.4c-.3.5-.6,1-.9,1.5-.4-11.6.6-23.5,0-35.1,0-.6.1-1.2-.1-1.8-.6.2-.3,1.3-.3,1.8-.6,11.9,0,23.8,0,35.7,0,28.7,0,57.4,0,86.1-.1.2-.8.2-.9,0-.6-.9,0-18.6,0-21.3s0-2.8,0-4.2c0-14,.5-28.6,0-42.6s.1-4-.2-6c-.1-3.3.9-9.6.2-12.7s-1.7-2.3-2-2.9c-6.2-12.9-4.8-23.7,2.9-35.7.4-.2,2.5,5.5,2.6,6.1Z"/>
    <path class="st1" d="M38.8,109.3c1.4,3.1,3,6.3,2.8,9.7l-2.3-2.4c-.8-1.3-2.1-2.4-3.1-3.5-5.8-6.7-13.2-14.1-19.8-19.8s-.6-1.1-1.1-.8c.2.6.8.8,1.1,1.2,6.2,7.2,13.9,13.8,20.1,21.2.5,1.4,2.8,2.9,3.7,4s1.1,1.2,1,1.8c-4.6-1.6-9.2-3.3-13.3-6-3.7-3.1-7.2-6.6-9.5-10.9s-4.7-11.7-3.4-12c9.6,3.6,18.5,8.6,23.9,17.6Z"/>
    <path class="st1" d="M59.2,145.9c-4.9,3.1-10,7.7-12.5,13-.2.4-.5,1.3-.7,1.8-.9,2.4-1.4,4.4-1.3,7.1.7-.7,1.4-1.5,2-2.2.7-.8,1.5-1.6,2.2-2.4,6-6.9,13-14.9,20.1-20.7,0,0,.2-.4.2-.4.3-.3.6-.7,1-.9l-.6.9c0,.5-.6.4-.7.4-6.3,7.6-13.5,14.9-20.1,22.3-.7.8-1.4,1.6-2.2,2.4-.6.7-1.2,1.5-2,2,.2.5.8,0,1.1,0,.2,0,.5-.2.7-.2,1.5-.5,3.8-1.5,5.3-2.2,9.6-4.4,16.1-11.6,18.5-22,.3-1.4.5-2.7.9-4.1-.5-.8-10.8,4.7-12,5.4Z"/>
  </g>
</svg>