<?xml version="1.0" encoding="UTF-8"?>
<svg id="Layer_1" xmlns="http://www.w3.org/2000/svg" version="1.1" viewBox="0 0 496.1 283.5">
  <!-- Generator: Adobe Illustrator 29.6.0, SVG Export Plug-In . SVG Version: 2.1.1 Build 207)  -->
  <defs>
    <style>
      .st0 {
        fill: #fff;
      }

      .st1 {
        fill: #4659a4;
      }

      .st2 {
        fill: #f08d24;
      }
    </style>
  </defs>
  <rect class="st0" width="496.1" height="283.5"/>
  <g>
    <path class="st2" d="M247.8,74.5c-4.9,5.5-24.2,37-25.7,43.3s-1.9,14.9,2.8,15.8c2.3.4,37.5-16.1,42.4-18.9,11.1-6.4,20.8-19.9,33.2-17.2-2.1,11.3-13.9,16.5-19.4,24.5-6.6,9.6-19.6,38.9-23.9,50.6-6.9,18.8-11.1,37.3-9.3,57.5-30.1,0-83.2-64.8-93.1-92.1-24.8-68.1,43-113.4,93.1-63.5Z"/>
    <path class="st1" d="M247.8,230.1c-1.7-20.2,2.4-38.7,9.3-57.5,4.3-11.7,17.3-41,23.9-50.6,5.5-7.9,17.3-13.1,19.4-24.5-12.4-2.7-22.1,10.8-33.2,17.2-4.9,2.8-40.1,19.3-42.4,18.9-4.6-.9-3.7-11.9-2.8-15.8,1.5-6.3,20.8-37.8,25.7-43.3,37.2-41.8,100.9-18.1,98.7,38.4-.9,23.2-18.2,52.5-33,70-11.3,13.3-48.7,47.2-65.7,47.2Z"/>
  </g>
</svg>